<svg width="77" height="87" viewBox="0 0 77 87" fill="none" xmlns="http://www.w3.org/2000/svg">
<path d="M22.96 62V17.3H53.56V25.4H32.26V36.74H50.56V44.84H32.26V62H22.96Z" fill="black"/>
<path d="M3.22288 64.1847C7.60863 66.9848 12.1078 69.0638 16.7204 70.4217C21.373 71.7793 26.1592 72.4356 31.079 72.3907C35.9988 72.3458 40.7322 71.6025 45.2792 70.1609C49.8662 68.719 54.3467 66.558 58.7206 63.6779L58.7891 71.1776C54.8206 74.654 50.5242 77.2533 45.8997 78.9756C41.3156 80.7376 36.4037 81.6424 31.1639 81.6903C25.9241 81.7382 20.9765 80.9233 16.321 79.2458C11.7058 77.6078 7.36262 75.0874 3.29137 71.6844L3.22288 64.1847Z" fill="black"/>
</svg>
