<svg width="443" height="301" viewBox="0 0 443 301" fill="none" xmlns="http://www.w3.org/2000/svg">
<path d="M203.693 151.21C208.232 146.656 217.382 138.914 217.669 144.379C218.027 151.21 209.069 168.827 217.669 160.917C226.269 153.008 236.662 138.987 237.378 144.379C238.095 149.772 239.17 151.21 249.204 141.503" stroke="black" stroke-width="2" stroke-linecap="round"/>
<path d="M29.5596 229.092C31.2335 231.368 36.5901 235.801 44.625 235.319" stroke="black" stroke-width="2" stroke-linecap="round"/>
<path d="M130.397 239.136C122.497 243.451 99.4594 247.542 70.093 229.758C69.6619 229.497 69.0973 229.587 68.7707 229.971C63.0023 236.752 46.9128 250.484 25.9436 252.192C19.7165 252.7 15.2974 249.581 22.5287 246.97C26.5463 245.519 29.5594 244.559 30.9654 243.153" stroke="black" stroke-width="2" stroke-linecap="round"/>
<path d="M19.3148 248.778C15.2974 250.653 10.0747 251.911 9.27122 248.376C8.26686 243.957 15.4983 244.76 18.3104 242.551" stroke="black" stroke-width="2" stroke-linecap="round"/>
<path d="M8.66919 248.576C1.83959 250.585 -1.32996 244.537 4.6518 241.546C10.2762 238.733 15.0971 239.738 18.7128 235.52" stroke="black" stroke-width="2" stroke-linecap="round"/>
<path d="M2.64287 242.952C1.10285 241.613 -0.731783 238.171 4.24985 235.118C10.4769 231.301 39.6034 218.446 35.9877 208.201C34.9243 205.188 29.158 205.39 24.3371 199.162C20.7563 194.537 24.3371 189.119 28.7563 192.132C29.8946 193.002 36.9117 197.555 40.6078 195.948C45.1993 193.952 60.3063 192.154 71.1401 205.737C71.2699 205.9 71.4415 206.022 71.6414 206.08C80.6242 208.689 100.249 212.441 109.306 207.197" stroke="black" stroke-width="2" stroke-linecap="round"/>
<path d="M41.0098 214.629C43.4872 216.973 50.4508 217.843 54.87 213.625" stroke="black" stroke-width="2" stroke-linecap="round"/>
<path d="M412.59 226.703C410.916 228.98 405.559 233.412 397.524 232.93" stroke="black" stroke-width="2" stroke-linecap="round"/>
<path d="M311.751 236.747C319.651 241.062 342.689 245.153 372.055 227.369C372.487 227.108 373.051 227.198 373.378 227.582C379.146 234.363 395.236 248.095 416.205 249.804C422.432 250.311 426.851 247.192 419.62 244.581C415.602 243.13 412.589 242.171 411.183 240.764" stroke="black" stroke-width="2" stroke-linecap="round"/>
<path d="M422.835 246.389C426.852 248.264 432.075 249.523 432.878 245.987C433.883 241.568 426.651 242.372 423.839 240.162" stroke="black" stroke-width="2" stroke-linecap="round"/>
<path d="M433.48 246.188C440.31 248.196 443.479 242.148 437.498 239.157C431.873 236.345 427.052 237.349 423.437 233.131" stroke="black" stroke-width="2" stroke-linecap="round"/>
<path d="M439.507 240.562C441.047 239.223 442.881 235.782 437.9 232.728C431.673 228.912 402.546 216.056 406.162 205.811C407.225 202.799 412.991 203 417.812 196.773C421.393 192.147 417.812 186.729 413.393 189.742C412.255 190.613 405.238 195.166 401.542 193.559C396.95 191.562 381.843 189.764 371.009 203.348C370.88 203.511 370.708 203.632 370.508 203.69C361.525 206.3 341.901 210.051 332.843 204.808" stroke="black" stroke-width="2" stroke-linecap="round"/>
<path d="M401.14 212.24C398.662 214.583 391.699 215.454 387.279 211.235" stroke="black" stroke-width="2" stroke-linecap="round"/>
<path d="M199.583 68.7119C201.099 86.004 208.86 116.501 227.705 117.683C247.556 118.928 255.827 78.6722 255.827 68.2969" stroke="black" stroke-width="2" stroke-linecap="round"/>
<path d="M203.198 67.8953L197.574 67.0918" stroke="black" stroke-width="2" stroke-linecap="round"/>
<path d="M257.959 67.0918C264.051 68.6238 268.842 75.281 254.22 87.9825" stroke="black" stroke-width="2" stroke-linecap="round"/>
<path d="M196.945 67.0918C191.635 67.7882 186.046 75.8659 202.395 87.9825" stroke="black" stroke-width="2" stroke-linecap="round"/>
<ellipse cx="213.644" cy="70.5066" rx="3.6157" ry="3.41483" fill="black"/>
<circle cx="241.163" cy="70.5066" r="3.41483" fill="black"/>
<circle cx="214.045" cy="70.3047" r="11.4541" stroke="black" stroke-width="2"/>
<path d="M252.015 70.3047C252.015 76.646 246.961 81.7588 240.762 81.7588C234.562 81.7588 229.508 76.646 229.508 70.3047C229.508 63.9634 234.562 58.8506 240.762 58.8506C246.961 58.8506 252.015 63.9634 252.015 70.3047Z" stroke="black" stroke-width="2"/>
<path d="M224.893 69.0996H229.714" stroke="black" stroke-width="2" stroke-linecap="round"/>
<path d="M222.942 76.7334C221.898 82.5251 221.782 92.1411 232.124 86.8459" stroke="black" stroke-width="2" stroke-linecap="round"/>
<path d="M220.474 99.2305C222.684 98.0178 228.429 96.3201 233.732 99.2305" stroke="black" stroke-width="2" stroke-linecap="round"/>
<path d="M251.007 67.0918H257.836" stroke="black" stroke-width="2" stroke-linecap="round"/>
<path d="M196.22 33.5559C175.14 43.4818 184.966 60.8522 192.514 68.2966C193.832 67.304 198.004 67.0559 199.925 67.0559C196.302 40.5868 209.943 33.5557 215.982 31.9014C232.862 29.0063 252.212 33.5559 255.506 46.7905C259.441 62.6004 259.564 67.883 262.623 68.2966C274.245 59.0324 272.531 41.2761 270.222 33.5559C273.235 24.9325 266.505 17.1506 262.623 12.4634C258.741 7.77612 248.095 -0.771423 229.157 0.0559613C191.691 3.77818 194.161 26.9386 196.22 33.5559Z" fill="black"/>
<path d="M206.814 53.8344C208.521 53.5312 213.644 53.1068 220.473 53.8344" stroke="black" stroke-width="2" stroke-linecap="round"/>
<path d="M234.937 54.6375C236.544 54.0311 241.364 53.1823 247.792 54.6375" stroke="black" stroke-width="2" stroke-linecap="round"/>
<path d="M209.14 115.8C169.367 112.988 159.565 107.324 130.8 176.263" stroke="black" stroke-width="2" stroke-linecap="round"/>
<path d="M247.674 114.35C281.822 120.375 298.294 99.4847 320.791 168.384" stroke="black" stroke-width="2" stroke-linecap="round"/>
<path d="M154.703 219.852C150.647 239.234 138.079 241.278 131.153 239.711C130.481 239.559 130.247 238.748 130.644 238.185C144.579 218.428 122.392 203.862 110.287 207.089C109.742 207.234 109.148 206.95 109.041 206.397C107.585 198.845 120.126 197.295 121.359 186.507C122.001 180.882 122.765 178.005 125.979 177.869C140.241 177.267 160.127 193.939 154.703 219.852Z" stroke="black" stroke-width="2" stroke-linecap="round"/>
<path d="M323.604 170.995C326.927 186.439 337.48 194.082 333.97 204.294C333.803 204.78 333.253 205.022 332.758 204.886C308.691 198.277 302.776 224.876 311.523 235.019C312.134 235.728 311.726 236.944 310.795 236.852C294.284 235.213 282.032 207.77 285.84 197.108C296.888 166.174 322.437 165.571 323.604 170.995Z" stroke="black" stroke-width="2" stroke-linecap="round"/>
<path d="M290.862 222.218C290.728 248.8 291.223 276.493 295.08 298.348" stroke="black" stroke-width="2" stroke-linecap="round"/>
<path d="M155.507 217.441C155.775 243.689 154.984 273.806 150.485 300" stroke="black" stroke-width="2" stroke-linecap="round"/>
<path d="M244.025 124.151C245.813 119.134 244.178 115.757 242.592 115.114C233.033 123.606 218.535 120.453 213.164 115.307C211.251 117.005 212.364 122.029 213.164 123.573C223.516 134.688 238.251 128.462 244.025 124.151Z" fill="black"/>
</svg>
