<svg width="321" height="301" viewBox="0 0 321 301" fill="none" xmlns="http://www.w3.org/2000/svg">
<path d="M136.17 236.333C132.45 217.132 146.244 173.275 153.605 153.746C156.059 154.908 176.594 150.907 183.181 141.358C188.451 133.719 197.4 130.719 201.779 129.358C207.591 127.551 217.277 127.809 219.085 132.196L221.022 136.713C227.351 154.908 221.84 182.566 217.923 194.911L203.458 197.491C192.506 179.736 198.12 158.091 202.296 149.488C197.853 155.476 185.377 161.79 179.694 164.199C179.436 180.071 155.155 234.784 149.86 238.269C145.624 241.056 138.968 238.14 136.17 236.333Z" fill="white"/>
<path d="M145.447 239.496L143.638 242.782M137.954 237.413L134.504 246.524L134.208 247.305C133.88 248.094 133.652 249.417 134.208 250.544C134.6 251.339 135.382 252.037 136.792 252.381C140.202 253.214 153.025 254.117 159.011 254.464C160.044 254.594 162.008 254.099 161.594 251.08C161.181 248.06 159.011 245.297 156.556 244.181C154.565 243.277 149.432 241.873 143.638 242.782L137.954 237.413ZM141.83 243.14C142.438 242.994 143.042 242.876 143.638 242.782L141.83 243.14Z" stroke="white" stroke-width="2" stroke-linecap="round"/>
<path d="M205.521 196.791C205.391 200.62 205.74 208.158 206.686 209.311C207.851 210.731 209.276 210.859 217.951 208.149C224.891 205.981 227.662 205.955 229.345 205.697C230.511 205.518 231.935 205.361 231.935 202.47C231.935 198.856 230.511 196.404 226.108 195.887C222.586 195.474 217.563 197.608 215.491 198.727V195.242" stroke="white" stroke-width="2" stroke-linecap="round"/>
<path d="M188.947 66.8779C175.646 68.222 149.51 73.8873 151.369 85.7949C151.654 86.806 152.473 88.4192 154 89.9366C155.471 91.3982 157.598 92.7711 160.538 93.4315" stroke="white" stroke-width="2" stroke-linecap="round"/>
<path d="M154 89.9375C158.16 96.409 170.352 110.465 185.848 114.918" stroke="white" stroke-width="2" stroke-linecap="round"/>
<path d="M185.749 114.917C186.696 113.644 189.185 111.344 192.108 111.235" stroke="white" stroke-width="2" stroke-linecap="round"/>
<path d="M192.107 111.235C192.021 107.601 188.955 98.2295 177.381 89.8154" stroke="white" stroke-width="2" stroke-linecap="round"/>
<path d="M174.034 92.8283C175.235 90.8834 178.926 86.7547 184.075 85.7998" stroke="white" stroke-width="2" stroke-linecap="round"/>
<path d="M202.817 89.1465C203.375 89.8058 204.491 91.5991 204.491 93.4974" stroke="white" stroke-width="2" stroke-linecap="round"/>
<path d="M202.685 116.929C205.323 116.8 210.831 116.413 211.766 115.897C212.933 115.252 213.192 115.252 213.192 113.962C213.192 112.673 202.685 114.865 202.685 110.738C203.637 109.793 205.176 107.669 203.723 106.74C202.27 105.812 199.226 108.503 197.886 109.965C196.503 111.426 193.398 113.731 192.049 111.254" stroke="white" stroke-width="2" stroke-linecap="round"/>
<path d="M186.083 114.866C187.25 118.262 191.453 124.358 198.924 121.572C206.396 118.787 206.707 117.316 205.929 116.93" stroke="white" stroke-width="2" stroke-linecap="round"/>
<path d="M250.43 116.311C252.246 115.815 256.214 113.506 257.563 108.242C258.912 102.977 257.087 102.951 256.007 103.596" stroke="white" stroke-width="2" stroke-linecap="round"/>
<path d="M243.686 112.499C244.248 109.575 246.228 103.932 249.652 104.757" stroke="white" stroke-width="2" stroke-linecap="round"/>
<path d="M245.113 107.726C242.727 105.764 241.265 110.263 240.833 112.758C238.136 113.584 237.115 117.489 236.943 119.339C243.185 119.979 247.621 118.303 250.43 116.311C252.15 115.092 253.26 113.754 253.802 112.758C255.142 109.188 257.096 101.739 254.191 100.5C251.286 99.2614 250.473 102.048 250.43 103.597C250.742 107.107 248.917 110.995 247.966 112.5" stroke="white" stroke-width="2" stroke-linecap="round"/>
<path d="M207.503 116.887C213.122 122.134 226.878 129.97 236.942 119.338" stroke="white" stroke-width="2" stroke-linecap="round"/>
<path d="M206.499 117.595C206.499 120.031 205.897 125.583 203.487 128.305" stroke="white" stroke-width="2" stroke-linecap="round"/>
<path d="M153.953 123.285C148.649 130.444 141.224 146.625 153.953 154.077" stroke="white" stroke-width="2" stroke-linecap="round"/>
<path d="M312.595 92.493L315.607 87.4727" stroke="white" stroke-width="2" stroke-linecap="round"/>
<path d="M314.067 95.1178L319.624 94.8594" stroke="white" stroke-width="2" stroke-linecap="round"/>
<path d="M312.93 98.1826L316.277 102.534" stroke="white" stroke-width="2" stroke-linecap="round"/>
<path d="M203.526 255.823H113.121V300" stroke="#CFCFCF" stroke-width="2" stroke-linecap="round"/>
<path d="M266.384 211.776H192.403V265.64" stroke="#CFCFCF" stroke-width="2" stroke-linecap="round"/>
<path d="M315.273 150.032H255.26V221.981" stroke="#CFCFCF" stroke-width="2" stroke-linecap="round"/>
<path d="M304.667 103.036V160.108" stroke="#CFCFCF" stroke-width="2" stroke-linecap="round"/>
<path d="M304.667 83.1221V87.9751" stroke="white" stroke-width="2" stroke-linecap="round"/>
<path d="M187.435 118.109L113.344 126.631C104.774 119.765 106.848 109.514 108.956 105.248L160.458 99.0742" stroke="white" stroke-width="2" stroke-linecap="round"/>
<path d="M212.863 116.051L238.292 113.607" stroke="white" stroke-width="2" stroke-linecap="round"/>
<path d="M256.879 110.907L273.53 109.749L295.861 99.6277C293.176 96.7775 294.648 94.2386 295.767 93.3303L273.53 88.1426L185.499 95.4736" stroke="white" stroke-width="2" stroke-linecap="round"/>
<path d="M100.978 105.354L108.525 104.542C103.291 116.269 109.291 124.247 113.121 127.351L104.312 128.64C96.9492 119.673 98.8472 109.638 100.978 105.354Z" fill="white"/>
<path d="M296.664 100.192C293.862 97.2678 295.437 93.7857 296.604 92.6611L307.24 95.2861L296.664 100.192Z" fill="white"/>
<path d="M273.772 88.1426C270.993 91.6695 267.104 100.892 273.772 109.563" stroke="white" stroke-width="2"/>
<path d="M209.784 69.1364C211.998 67.7738 228.652 69.0872 231.889 48.1387C237.432 48.2036 240.447 43.6629 236.217 41.7197C231.708 39.3946 232.047 35.126 232.864 32.6108C234.162 29.3124 234.241 25.8493 233.961 25.125" stroke="white" stroke-width="2" stroke-linecap="round"/>
<path d="M227.003 40.5746C227.632 40.582 228.151 39.8231 228.162 38.8796C228.173 37.9361 227.672 37.1652 227.043 37.1579C226.414 37.1505 225.895 37.9094 225.884 38.8529C225.873 39.7964 226.374 40.5672 227.003 40.5746Z" fill="white"/>
<path d="M223.91 33.6605C224.835 32.6718 227.227 31.2257 229.394 33.3499" stroke="white" stroke-width="2" stroke-linecap="round"/>
<path d="M217.628 52.9102C219.328 55.5257 221.194 56.2684 224.819 54.5806" stroke="white" stroke-width="2" stroke-linecap="round"/>
<path d="M203.714 34.5771C203.32 35.442 202.99 37.4053 204.82 38.3397" stroke="white" stroke-width="2" stroke-linecap="round"/>
<path d="M184.203 25.6959C182.046 37.4955 188.794 46.3778 193.687 53.2061C198.911 50.3833 207.475 43.6708 204.19 42.9462C200.738 42.1848 197.098 32.7689 200.45 29.8885C204.383 26.5091 207.928 31.6223 208.604 35.4994L211.772 30.0211C210.876 26.1894 210.525 19.4681 216.286 23.2361C222.047 27.0041 230.497 26.0171 234.002 25.0526C240.914 20.1057 251.651 8.56679 239.312 1.98652C229.049 -3.48645 215.694 3.43287 207.541 9.65024C202.022 8.19304 187.144 9.60767 184.203 25.6959Z" fill="white"/>
<path d="M194.07 52.416C196.565 55.4195 197.804 57.9136 197.65 63.0802" stroke="white" stroke-width="2" stroke-linecap="round"/>
<path d="M191.295 69.9966C190.421 66.9496 189.91 61.1381 194.85 62.2676C201.025 63.6793 213.612 69.7861 212.69 73.1711" stroke="white" stroke-width="2" stroke-linecap="round"/>
<path d="M212.69 77.9346C217.209 82.1182 218.213 84.7957 218.882 89.816" stroke="white" stroke-width="2" stroke-linecap="round"/>
<path d="M1 213.634C7.13774 213.075 21.6005 216.735 31.2616 235.559C31.5143 236.051 32.2269 236.064 32.4786 235.571C42.3883 216.171 54.5509 196.492 92.9946 220.187C93.5857 220.551 94.3611 219.891 94.0683 219.262C87.831 205.847 84.4604 180.264 113.525 167.573C114.108 167.318 114.082 166.452 113.472 166.273L105.954 164.076C105.265 163.874 105.34 162.929 106.055 162.864C113.8 162.166 124.725 162.621 120.964 167.191C116.572 172.526 115.492 175.899 116.563 181.469" stroke="#CFCFCF" stroke-width="2" stroke-linecap="round"/>
</svg>
